<?xml version="1.0" encoding="utf-8"?>
<!-- Generator: Adobe Illustrator 26.0.2, SVG Export Plug-In . SVG Version: 6.00 Build 0)  -->
<svg version="1.1" id="Layer_1" xmlns="http://www.w3.org/2000/svg" xmlns:xlink="http://www.w3.org/1999/xlink" x="0px" y="0px"
	 viewBox="0 0 1000.6 108" style="enable-background:new 0 0 1000.6 108;" xml:space="preserve">
<style type="text/css">
	.st0{fill:#008539;}
	.st1{fill-rule:evenodd;clip-rule:evenodd;fill:#008539;}
</style>
<g>
	<path class="st0" d="M351.6,0.9h9.2v23.9c0,7.8,3,9.8,8.9,9.8s8.9-2,8.9-9.8V0.9h9.1v25.2c0,10.5-6,16-18,16s-18.1-5.5-18.1-16V0.9
		L351.6,0.9z"/>
	<path class="st0" d="M425.5,22.5v18.6h-9V23.9c0-4.8-2.1-6.8-5.7-6.8c-4.8,0-7.4,3-7.4,10.2v13.8h-9V10.8h9v5.9
		c1.9-4.1,5.4-6.9,10.9-6.9C422.2,9.9,425.5,14.6,425.5,22.5"/>
	<path class="st0" d="M431.8,0.9h9.7v6h-9.7V0.9z M432.2,10.8h9v30.3h-9V10.8L432.2,10.8z"/>
	<polygon class="st0" points="479,10.8 468.4,41.1 455.9,41.1 445.3,10.8 454.5,10.8 462.5,34.1 470.4,10.8 	"/>
	<path class="st0" d="M503.5,31.9h8.6c-0.8,4.8-4.7,10.1-15.6,10.1c-11.8,0-16.3-7.6-16.3-16.1s5.1-16,16.3-16
		c11.2,0,15.7,7.4,15.7,16c0,0.9,0,1.8-0.1,2.4h-23c0.5,5.7,3.4,7.6,7.7,7.6C500.6,35.9,502.7,34.2,503.5,31.9 M489.1,22.8h14.6
		c-0.3-4.6-2.5-6.9-7-6.9S489.8,17.7,489.1,22.8"/>
	<path class="st0" d="M537.4,10.4v8.7h-3c-6,0-8,3.3-8,10.1v11.9h-9V10.8h8.7v6.5c1.5-4.3,4.2-7,9.2-7L537.4,10.4L537.4,10.4z"/>
	<path class="st0" d="M547.9,31.2c0.2,2.9,2.4,5.2,7,5.2c4.1,0,5.4-1.4,5.4-3.5c0-1.8-0.9-3.1-4.2-3.6l-6.8-0.8
		c-5.7-0.7-8.8-3.7-8.8-8.8c0-6.7,5.7-9.9,13.7-9.9s13.7,3.2,14.2,9.9h-8.3c-0.3-2.5-2.2-4.2-5.9-4.2s-5.4,1.5-5.4,3.4
		c0,1.5,0.8,2.7,3.8,3.1l6.3,0.7c7.2,0.9,9.9,4,9.9,9.4c0,5.9-3.7,10-14.2,10c-10.4,0-14.8-5.1-15-10.8L547.9,31.2L547.9,31.2z"/>
	<path class="st0" d="M574.1,0.9h9.7v6h-9.7V0.9z M574.5,10.8h9v30.3h-9V10.8L574.5,10.8z"/>
	<path class="st0" d="M593.1,30.2V17.6h-5.5v-4.3l6.2-2.5l3.7-7.1h4.5v7.2h8.7v6.8H602V34h7.9v7.1h-5.7
		C595.6,41.1,593.1,37.4,593.1,30.2"/>
	<path class="st0" d="M614.6,33c0-4.8,2.1-8,9.9-9.3l7.1-1.2c2.8-0.5,3.7-1.3,3.7-3c0-2.1-1.2-3.5-5.3-3.5s-6,1.6-6.2,4.7H615
		c0.2-6.5,5.6-10.9,14.8-10.9s13.7,3.9,13.7,10.3v13.1c0,2.8,0.2,5.3,0.5,7.9h-7.8c-0.3-2-0.5-4-0.5-6.5c-1.4,4.2-5,7.3-11.2,7.3
		C618.5,41.9,614.6,38.5,614.6,33 M635.4,26.7v-1.3c-1.6,1.1-3.1,1.5-5,1.9l-2.5,0.6c-3.2,0.8-4.5,1.9-4.5,4.2
		c0,2.4,1.8,3.6,4.2,3.6C632.4,35.8,635.4,32.3,635.4,26.7"/>
	<path class="st0" d="M652.8,30.2V17.6h-5.5v-4.3l6.2-2.5l3.7-7.1h4.5v7.2h8.7v6.8h-8.7V34h7.9v7.1H664
		C655.4,41.1,652.8,37.4,652.8,30.2"/>
	<path class="st0" d="M719.9,32.9h-18l-2.9,8.2h-9.2L704,0.9h14l14.1,40.2h-9.3L719.9,32.9z M717.5,25.8L711,7.2l-6.5,18.6H717.5
		L717.5,25.8z"/>
	<path class="st0" d="M766.6,10.8v30.3h-9v-5.8c-1.9,4.1-5.3,6.8-10.7,6.8c-7.9,0-11.4-4.8-11.4-12.7V10.8h9V28
		c0,4.8,2.1,6.7,5.9,6.7c4.5,0,7.3-3.3,7.3-10.2V10.8H766.6L766.6,10.8z"/>
	<path class="st0" d="M776.3,30.2V17.6h-5.5v-4.3l6.2-2.5l3.7-7.1h4.5v7.2h8.7v6.8h-8.7V34h7.9v7.1h-5.7
		C778.8,41.1,776.3,37.4,776.3,30.2"/>
	<path class="st0" d="M796.8,25.9c0-8.3,4.7-16,16.7-16s16.7,7.7,16.7,16S825.5,42,813.5,42C801.4,42,796.8,34.4,796.8,25.9
		 M806.8-0.2l15.3,5.3l-0.7,2.4l-16.3-1.9L806.8-0.2z M813.5,35c5.5,0,7.8-2.4,7.8-9.1s-2.3-9.1-7.8-9.1s-7.7,2.4-7.7,9.1
		S808.1,35,813.5,35"/>
	<path class="st0" d="M866.7,22.5v18.6h-9V23.9c0-4.8-2.1-6.8-5.7-6.8c-4.8,0-7.4,3-7.4,10.2v13.8h-9V10.8h9v5.9
		c1.9-4.1,5.4-6.9,10.9-6.9C863.4,9.9,866.7,14.6,866.7,22.5"/>
	<path class="st0" d="M871.7,25.9c0-8.3,4.7-16,16.7-16s16.7,7.7,16.7,16S900.4,42,888.4,42S871.7,34.4,871.7,25.9 M888.4,35
		c5.5,0,7.8-2.4,7.8-9.1s-2.3-9.1-7.8-9.1s-7.7,2.4-7.7,9.1S883,35,888.4,35"/>
	<path class="st0" d="M961.8,22.5v18.6h-9V23.8c0-4.5-1.8-6.7-5.4-6.7c-4.5,0-6.8,3-6.8,10.2v13.8h-8.8V23.8c0-4.5-1.8-6.7-5.4-6.7
		c-4.5,0-6.8,3-6.8,10.2v13.8h-9V10.8h9v5.5c1.8-3.9,5.1-6.5,10.3-6.5c5.3,0,8.6,2.5,10,7c1.8-4.2,5.1-7,10.8-7
		C958.3,9.9,961.8,14.6,961.8,22.5"/>
	<path class="st0" d="M967.6,33c0-4.8,2.1-8,9.9-9.3l7.1-1.2c2.8-0.5,3.7-1.3,3.7-3c0-2.1-1.2-3.5-5.3-3.5s-6,1.6-6.2,4.7H968
		c0.2-6.5,5.6-10.9,14.8-10.9s13.7,3.9,13.7,10.3v13.1c0,2.8,0.2,5.3,0.5,7.9h-7.8c-0.3-2-0.5-4-0.5-6.5c-1.4,4.2-5,7.3-11.2,7.3
		C971.4,41.9,967.6,38.5,967.6,33 M988.4,26.7v-1.3c-1.6,1.1-3.1,1.5-5,1.9l-2.5,0.6c-3.2,0.8-4.5,1.9-4.5,4.2
		c0,2.4,1.8,3.6,4.2,3.6C985.3,35.8,988.4,32.3,988.4,26.7"/>
	<path class="st0" d="M383.8,62.5v42.3h-9v-4.5c-2.1,3.4-5.6,5.4-10.8,5.4c-9.9,0-13.9-7.4-13.9-16.1s4.1-16,13.9-16
		c5.2,0,8.7,2.1,10.8,5.5V62.5C374.9,62.5,383.8,62.5,383.8,62.5z M374.9,89.7c0-6.2-2.4-9.1-8-9.1s-7.7,2.8-7.7,9.1
		c0,6.3,2.1,9.1,7.7,9.1S374.9,95.9,374.9,89.7"/>
	<path class="st0" d="M412.1,95.7h8.6c-0.8,4.8-4.7,10.1-15.6,10.1c-11.8,0-16.3-7.6-16.3-16.1s5.1-16,16.3-16
		c11.2,0,15.7,7.4,15.7,16c0,0.9,0,1.8-0.1,2.4h-23c0.5,5.7,3.4,7.6,7.7,7.6C409.2,99.6,411.2,97.9,412.1,95.7 M397.6,86.6h14.6
		c-0.3-4.6-2.5-6.9-7-6.9S398.4,81.4,397.6,86.6"/>
	<path class="st0" d="M475.9,93.9c0,6.8-4.4,10.9-13,10.9h-22V64.6h22.4c8.6,0,12,4.5,12,9.9c0,5.9-3.7,8.6-8.3,9.6
		C472.1,84.9,475.9,87.5,475.9,93.9 M450.1,71.6v9.6h10.2c4,0,5.4-1.9,5.4-4.8c0-3.1-1.3-4.8-5.1-4.8L450.1,71.6L450.1,71.6z
		 M466.3,92.6c0-3.2-1.6-5.3-6-5.3h-10.2v10.5h10.8C465,97.8,466.4,95.6,466.3,92.6"/>
	<path class="st0" d="M481.3,96.8c0-4.8,2.1-8,9.9-9.3l7.1-1.2c2.8-0.5,3.7-1.3,3.7-3c0-2.1-1.2-3.5-5.3-3.5c-4.1,0-6,1.6-6.2,4.7
		h-8.8c0.2-6.5,5.6-10.9,14.8-10.9s13.7,3.9,13.7,10.3V97c0,2.8,0.2,5.3,0.5,7.9H503c-0.3-2-0.5-4-0.5-6.5c-1.4,4.2-5,7.3-11.2,7.3
		C485.1,105.6,481.3,102.2,481.3,96.8 M502.1,90.5v-1.4c-1.6,1.1-3.1,1.5-5,1.9l-2.5,0.6c-3.2,0.8-4.5,1.9-4.5,4.2
		c0,2.4,1.8,3.6,4.2,3.6C499.1,99.5,502.1,96.1,502.1,90.5"/>
	<path class="st0" d="M538.1,74.1v8.7h-3c-6,0-8,3.3-8,10.1v11.9h-9V74.6h8.7v6.5c1.5-4.3,4.2-7,9.2-7H538.1z"/>
	<path class="st0" d="M557.2,73.6c10.5,0,15.6,5.8,15.8,13.2h-8.7c-0.3-3.7-2.4-6.2-7-6.2c-4.8,0-7.7,2.3-7.7,9.1s2.8,9.1,7.6,9.1
		s6.9-2.8,7.3-6.4h8.7c-0.2,7.1-5.2,13.4-15.8,13.4c-11.8,0-16.8-7.6-16.8-16.1S545.5,73.6,557.2,73.6"/>
	<path class="st0" d="M600.3,95.7h8.6c-0.8,4.8-4.7,10.1-15.6,10.1c-11.8,0-16.3-7.6-16.3-16.1s5.1-16,16.3-16s15.7,7.4,15.7,16
		c0,0.9,0,1.8-0.1,2.4h-23c0.5,5.7,3.4,7.6,7.7,7.6C597.4,99.6,599.5,97.9,600.3,95.7 M585.9,86.6h14.6c-0.3-4.6-2.5-6.9-7-6.9
		S586.6,81.4,585.9,86.6"/>
	<rect x="614.1" y="62.5" class="st0" width="9" height="42.3"/>
	<path class="st0" d="M628.4,89.7c0-8.3,4.7-16,16.7-16s16.7,7.7,16.7,16s-4.7,16.1-16.7,16.1C633.1,105.8,628.4,98.1,628.4,89.7
		 M645.2,98.8c5.5,0,7.8-2.4,7.8-9.1s-2.3-9.1-7.8-9.1s-7.7,2.4-7.7,9.1S639.7,98.8,645.2,98.8"/>
	<path class="st0" d="M698.4,86.3v18.6h-9V87.7c0-4.8-2.1-6.8-5.7-6.8c-4.8,0-7.4,3-7.4,10.2v13.7h-9V74.6h9v5.9
		c1.9-4.1,5.4-6.9,10.9-6.9C695.1,73.6,698.4,78.4,698.4,86.3"/>
	<path class="st0" d="M704.2,96.8c0-4.8,2.1-8,9.9-9.3l7.1-1.2c2.8-0.5,3.7-1.3,3.7-3c0-2.1-1.2-3.5-5.3-3.5s-6,1.6-6.2,4.7h-8.8
		c0.2-6.5,5.6-10.9,14.8-10.9s13.7,3.9,13.7,10.3V97c0,2.8,0.2,5.3,0.5,7.9h-7.8c-0.3-2-0.5-4-0.5-6.5c-1.4,4.2-5,7.3-11.2,7.3
		C708.1,105.6,704.2,102.2,704.2,96.8 M725,90.5v-1.4c-1.6,1.1-3.1,1.5-5,1.9l-2.5,0.6c-3.2,0.8-4.5,1.9-4.5,4.2
		c0,2.4,1.8,3.6,4.2,3.6C722,99.5,725,96.1,725,90.5"/>
	<path class="st0" d="M0.9,0.9h23.8v61.8c0,20.2,7.7,25.3,23,25.3s23-5.2,23-25.3V0.9h23.6v65c0,27.1-15.5,41.4-46.6,41.4
		S0.9,93.1,0.9,65.9V0.9z"/>
	<path class="st0" d="M317.5,76.6c0,17.5-11.4,28.3-33.6,28.3H227V0.9h58c22.2,0,31.1,11.6,31.1,25.6c0,15.3-9.5,22.2-21.4,24.7
		C307.7,53.3,317.6,60,317.5,76.6 M250.8,18.9v24.9h26.4c10.3,0,14.1-5,14.1-12.5c0-8-3.4-12.4-13.3-12.4L250.8,18.9L250.8,18.9z
		 M292.8,73.3c0-8.3-4.2-13.6-15.6-13.6h-26.4v27.1h27.8C289.2,86.7,292.8,80.9,292.8,73.3"/>
	<path class="st1" d="M176.4,0.8h-33.5l-41.4,104h23.4c0.3-0.9,0.8-2.2,1.1-3c1.9-4.6,4.8-8.4,8.3-11.7c5.8-5.4,12.8-7.7,20.1-8.3
		c4.9-0.4,10.7-0.5,15.7-0.5h15.3l9.1,23.5h23.4L176.4,0.8z M168.3,63.1c-0.6,0-1.2,0-1.8,0c-12.3,0.1-22.5,3-32.2,17.3l25.4-63.1
		l18.4,45.8C177.9,63.1,168.3,63.1,168.3,63.1"/>
</g>
</svg>
